<svg width="117" height="46" viewBox="0 0 117 46" fill="none" xmlns="http://www.w3.org/2000/svg">
<path d="M39.2868 0.234732C41.5807 0.234732 43.361 0.714052 44.6962 1.67268C45.9972 2.63131 46.6477 4.10349 46.682 6.05499C46.682 7.01362 46.4766 7.97225 46.0315 8.82817C45.6549 9.61562 45.0044 10.2661 44.2169 10.6427V10.7797C45.1071 11.1905 45.8603 11.841 46.4081 12.6969C46.7505 13.2105 46.9901 13.7583 47.1613 14.3403C47.3667 15.025 47.4694 15.7782 47.4352 16.4972C47.4694 17.5928 47.2298 18.6541 46.7847 19.6128C46.3738 20.5029 45.7234 21.2561 44.9701 21.8382C44.1827 22.4544 43.2925 22.8995 42.3339 23.1734C41.341 23.4815 40.2797 23.6185 39.2526 23.6185H26.7219V0.16626H39.2868V0.234732ZM32.7476 8.86241H38.2597C38.9445 8.93088 39.595 8.72546 40.1085 8.28038C40.4509 7.90378 40.6563 7.39023 40.6221 6.87667C40.6221 6.39736 40.4509 5.91804 40.1085 5.54144C39.595 5.09636 38.9102 4.89094 38.2597 4.95941H32.7476V8.86241ZM32.7476 18.928H38.3282C39.1841 18.9965 40.04 18.7568 40.6905 18.2091C41.1699 17.6955 41.4095 17.045 41.3753 16.326C41.4437 15.5386 41.1356 14.7854 40.5536 14.2718C39.9031 13.7925 39.1156 13.5528 38.3282 13.5871H32.7476V18.928Z" fill="#4285F4"/>
<path d="M53.153 23.6854H46.7849L55.0702 0.267456H61.2328L69.7236 23.6854H63.0132L61.8833 19.6112H54.317L53.153 23.6854ZM58.1173 6.39584H57.9803L55.5495 15.092H60.5139L58.1173 6.39584Z" fill="#4285F4"/>
<path d="M76.7769 9.82007H76.6399V23.686H70.6143V0.233765H77.2904L85.2676 13.3122H85.4045V0.233765H91.4302V23.686H85.3703L76.7769 9.82007Z" fill="#4285F4"/>
<path d="M99.8187 0.233765V8.4506L107.522 0.233765H115.465L106.016 9.16957L116.013 23.686H108.446L101.531 13.278L99.7845 14.9556V23.686H93.7588V0.233765H99.8187Z" fill="#4285F4"/>
<path d="M13.3364 27.2822V31.2195H9.22797V45.0169H4.8799V31.2195H0.771484V27.2822H13.3364Z" fill="white"/>
<path d="M23.7781 27.2822C24.3943 27.2822 25.0448 27.4192 25.5926 27.6588C26.1404 27.8985 26.654 28.2751 27.0306 28.7544C27.4414 29.2337 27.7495 29.7815 27.955 30.3978C28.1946 31.0483 28.2973 31.733 28.2973 32.4177C28.3316 33.4448 28.0577 34.4377 27.5441 35.3279C27.0306 36.1496 26.3116 36.7658 25.4557 37.1767L28.6739 45.0169H24.052L21.3815 37.7929H17.8893V45.0169H13.5413V27.2822H23.7781ZM22.4771 34.0953C22.8879 34.1296 23.2988 33.9584 23.5384 33.616C23.7781 33.3079 23.8808 32.9313 23.8808 32.5547C23.8808 32.3835 23.8465 32.1781 23.8123 32.0069C23.7781 31.8357 23.6754 31.6645 23.5726 31.4934C23.4699 31.3564 23.2987 31.2195 23.1276 31.1168C22.9221 31.014 22.7167 30.9456 22.4771 30.9798H17.9236V34.0953H22.4771Z" fill="white"/>
<path d="M32.1322 45.0169H27.5444L33.5016 27.2822H37.9524L44.0466 45.0169H39.2192L38.3975 41.9356H32.9538L32.1322 45.0169ZM35.727 31.9384H35.6586L33.9125 38.5119H37.4731L35.727 31.9384Z" fill="white"/>
<path d="M48.4979 34.5404H48.3952V45.0169H44.0471V27.2822H48.8403L54.592 37.1767H54.6948V27.2822H59.0428V45.0169H54.6605L48.4979 34.5404Z" fill="white"/>
<path d="M66.4705 45.4642C65.5119 45.4984 64.5533 45.3615 63.6289 45.0876C62.8756 44.8479 62.1909 44.5055 61.5746 44.0605C61.0269 43.6154 60.5475 43.1018 60.2052 42.4513C59.8628 41.8008 59.5889 41.1161 59.4177 40.4314L63.5604 38.7538C63.5946 39.6439 63.937 40.4656 64.5532 41.0819C65.2037 41.6297 66.0254 41.9035 66.8471 41.8693C67.0868 41.8693 67.3264 41.8351 67.5661 41.8008C67.8057 41.7666 68.0112 41.6981 68.2166 41.5612C68.422 41.4585 68.559 41.2873 68.6959 41.0819C68.8328 40.8764 68.9013 40.6025 68.9013 40.3629C68.9013 40.1232 68.8671 39.8836 68.7986 39.6439C68.6959 39.4043 68.559 39.1988 68.3878 39.0619C68.1481 38.8565 67.8742 38.6853 67.5661 38.5483C67.121 38.3429 66.6759 38.206 66.2308 38.069C65.2722 37.7951 64.3478 37.4528 63.4577 37.0762C62.7387 36.768 62.0882 36.3572 61.4719 35.8436C60.9584 35.3985 60.5475 34.8508 60.2736 34.2345C59.9998 33.5498 59.8628 32.8308 59.8628 32.1118C59.8628 31.3244 60.034 30.5369 60.3764 29.8522C60.7187 29.2017 61.198 28.6197 61.8143 28.1746C62.4648 27.6953 63.1838 27.3529 63.9712 27.1475C64.8614 26.9078 65.7858 26.8051 66.7102 26.8051C67.5319 26.8051 68.3878 26.8736 69.1752 27.079C69.8257 27.2502 70.442 27.5241 70.9898 27.9007C71.5033 28.2431 71.9484 28.6881 72.2908 29.2017C72.6674 29.7837 72.9413 30.3657 73.1809 31.0162L69.4491 32.6596C69.3122 31.9749 68.9698 31.3586 68.4905 30.8793C67.4634 30.1946 66.1624 30.1603 65.101 30.7766C64.7929 31.0162 64.6217 31.3586 64.5875 31.7352C64.5875 31.9749 64.6217 32.1803 64.7244 32.3857C64.8271 32.5911 64.9983 32.7966 65.2037 32.9335C65.4776 33.1389 65.7858 33.3101 66.1281 33.4128C66.6417 33.6182 67.121 33.7552 67.6346 33.8921C68.4562 34.1318 69.2779 34.3714 69.9969 34.6111C70.6816 34.8508 71.3321 35.1931 71.9142 35.6382C72.4619 36.0833 72.907 36.6311 73.2152 37.2473C73.5575 38.0348 73.7287 38.9249 73.6945 39.7809C73.7287 40.6368 73.5233 41.4585 73.1467 42.2459C72.7701 42.9306 72.2565 43.5469 71.606 43.992C70.9213 44.4713 70.1338 44.8479 69.3122 45.0533C68.3535 45.3615 67.3949 45.4984 66.4705 45.4642Z" fill="white"/>
<path d="M78.3505 33.8557H85.0952V37.7929H78.3505V45.0169H74.0024V27.2822H87.1494V31.2195H78.3505V33.8557Z" fill="white"/>
<path d="M87.4922 27.2822H100.639V31.2195H91.8403V33.616H99.5435V37.5533H91.8403V41.1139H100.879V45.0511H87.4922V27.2822Z" fill="white"/>
<path d="M111.424 27.2822C112.04 27.2822 112.691 27.4192 113.238 27.6588C113.786 27.8985 114.3 28.2751 114.676 28.7544C115.087 29.2337 115.395 29.7815 115.601 30.3978C115.84 31.0483 115.943 31.733 115.943 32.4177C115.977 33.4448 115.703 34.4377 115.19 35.3279C114.676 36.1496 113.957 36.7658 113.101 37.1767L116.32 45.0169H111.698L109.027 37.7929H105.535V45.0169H101.187V27.2822H111.424ZM110.123 34.0953C110.534 34.1296 110.945 33.9584 111.184 33.616C111.424 33.3079 111.527 32.9313 111.527 32.5547C111.527 32.3835 111.492 32.1781 111.458 32.0069C111.424 31.8357 111.321 31.6645 111.218 31.4934C111.116 31.3564 110.944 31.2195 110.773 31.1168C110.568 31.014 110.362 30.9456 110.123 30.9798H105.569V34.0953H110.123Z" fill="white"/>
<path d="M23.0073 21.4374H1.73201C1.1442 21.4374 0.667969 21.9136 0.667969 22.5019C0.667969 23.0892 1.1442 23.5654 1.73201 23.5654H23.0068C23.5946 23.5654 24.0708 23.0892 24.0708 22.5019C24.0703 21.9136 23.5941 21.4374 23.0073 21.4374Z" fill="white"/>
<path d="M3.06086 18.6754C2.47305 18.6754 1.99683 19.1515 1.99683 19.7393C1.99683 20.3271 2.47305 20.8038 3.06086 20.8038H21.6765C22.2644 20.8038 22.7406 20.3271 22.7406 19.7393C22.7406 19.1515 22.2644 18.6754 21.6765 18.6754H21.411V9.10155H21.6765C21.971 9.10155 22.2081 8.86345 22.2081 8.57006C22.2081 8.27667 21.97 8.03857 21.6765 8.03857H3.06086C2.76696 8.03857 2.52934 8.27667 2.52934 8.57006C2.52934 8.86345 2.76746 9.10155 3.06086 9.10155H3.32687V18.6749L3.06086 18.6754ZM19.283 9.10155V18.6749H16.0918V9.10155H19.283ZM13.9638 9.10155V18.6749H10.7726V9.10155H13.9638ZM5.45395 9.10155H8.64507V18.6749H5.45395V9.10155Z" fill="white"/>
<path d="M1.73203 7.08017H23.0068C23.0103 7.08017 23.0143 7.08017 23.0173 7.08017C23.6056 7.08017 24.0813 6.60397 24.0813 6.01619C24.0813 5.54896 23.7804 5.15296 23.3625 5.0095L12.8068 0.259962C12.5293 0.135433 12.212 0.135433 11.934 0.259962L1.29565 5.04636C0.837856 5.25258 0.586293 5.7497 0.6919 6.23985C0.797009 6.72999 1.23039 7.08017 1.73203 7.08017Z" fill="white"/>
</svg>