<svg width="115" height="56" viewBox="0 0 115 56" fill="none" xmlns="http://www.w3.org/2000/svg">
<g clip-path="url(#clip0_6577_1178)">
<path d="M54.242 29.1525V42.4592H49.9495V9.55011H61.11C63.8285 9.55011 66.404 10.5517 68.4072 12.4118C70.4104 14.1288 71.4119 16.7043 71.4119 19.4229C71.4119 22.1414 70.4104 24.5738 68.4072 26.4339C66.404 28.294 63.9716 29.2956 61.11 29.2956L54.242 29.1525ZM54.242 13.5564V25.0031H61.3961C62.97 25.0031 64.544 24.4308 65.5455 23.2861C67.8349 21.1398 67.8349 17.5628 65.6886 15.4165L65.5455 15.2734C64.4009 14.1288 62.97 13.4134 61.3961 13.5564H54.242Z" fill="white"/>
<path d="M81.2839 19.2791C84.4317 19.2791 86.8641 20.1376 88.7242 21.8546C90.5843 23.5715 91.4428 25.8609 91.4428 28.7225V42.4585H87.4365V39.3107H87.2934C85.5764 41.8862 83.144 43.174 80.2823 43.174C77.8499 43.174 75.7036 42.4585 73.9866 41.0277C72.4127 39.5969 71.4111 37.5937 71.4111 35.4475C71.4111 33.1581 72.2696 31.298 73.9866 29.8672C75.7036 28.4364 78.136 27.864 80.9977 27.864C83.5732 27.864 85.5764 28.2933 87.1503 29.2949V28.2933C87.1503 26.8625 86.578 25.4316 85.4333 24.5731C84.2886 23.5715 82.8578 22.9992 81.2839 22.9992C78.8515 22.9992 76.9914 24.0008 75.7036 26.004L71.9835 23.7146C74.2728 20.7099 77.2775 19.2791 81.2839 19.2791ZM75.8467 35.5905C75.8467 36.7352 76.419 37.7368 77.2775 38.3091C78.2791 39.0245 79.4238 39.4538 80.5685 39.4538C82.2855 39.4538 84.0025 38.7384 85.2902 37.4506C86.721 36.1629 87.4365 34.589 87.4365 32.872C86.1487 31.8704 84.2886 31.298 81.8562 31.298C80.1392 31.298 78.7084 31.7273 77.5637 32.5858C76.419 33.3012 75.8467 34.3028 75.8467 35.5905Z" fill="white"/>
<path d="M114.622 19.9964L100.457 52.4763H96.1643L101.458 41.1727L92.158 20.1395H96.7366L103.462 36.3079H103.605L110.186 20.1395H114.622V19.9964Z" fill="white"/>
<path d="M37.2145 26.2892C37.2145 25.0015 37.0715 23.7137 36.9284 22.426H19.043V29.7232H29.2019C28.7726 32.0125 27.4849 34.1588 25.4817 35.4465V40.1683H31.6343C35.2114 36.8774 37.2145 32.0125 37.2145 26.2892Z" fill="#4285F4"/>
<path d="M19.043 44.7489C24.194 44.7489 28.4865 43.0319 31.6343 40.1702L25.4817 35.4485C23.7647 36.5931 21.6185 37.3085 19.043 37.3085C14.1782 37.3085 9.88567 34.0176 8.45484 29.439H2.15918V34.3038C5.45009 40.7425 11.8888 44.7489 19.043 44.7489Z" fill="#34A853"/>
<path d="M8.45471 29.4395C7.59622 27.1501 7.59622 24.5746 8.45471 22.1422V17.2774H2.15905C-0.559528 22.5715 -0.559528 28.8671 2.15905 34.3043L8.45471 29.4395Z" fill="#FBBC04"/>
<path d="M19.0435 14.4131C21.762 14.4131 24.3375 15.4147 26.3407 17.2748L31.7779 11.8376C28.3439 8.68978 23.7652 6.8297 19.1866 6.97279C12.0324 6.97279 5.45056 10.9791 2.30273 17.4179L8.5984 22.2827C9.88614 17.704 14.1786 14.4131 19.0435 14.4131Z" fill="#EA4335"/>
</g>
<defs>
<clipPath id="clip0_6577_1178">
<rect x="0.155762" y="0.966248" width="114.467" height="54.5147" fill="white"/>
</clipPath>
</defs>
</svg>