<svg width="78" height="50" viewBox="0 0 78 50" fill="none" xmlns="http://www.w3.org/2000/svg">
<path d="M41.2049 47.6614V42.1274C41.2049 40.7654 40.6834 40.0843 39.3802 40.0843C38.8587 40.0843 38.2506 40.1696 37.9028 40.2545V48.3424C37.9028 48.5978 37.6421 48.8533 37.3814 48.8533H35.3825C35.1218 48.8533 34.861 48.5978 34.861 48.3424V38.8924C34.861 38.5517 35.1218 38.2967 35.3825 38.2114C36.6862 37.7858 37.9894 37.5304 39.3797 37.5304C42.5082 37.5304 44.2463 39.1479 44.2463 42.1279V48.4277C44.2463 48.6831 43.9855 48.9386 43.7248 48.9386H42.5082C41.7264 48.9381 41.2049 48.3424 41.2049 47.6614ZM49.0262 44.3411L48.9391 45.1074C48.9391 46.1292 49.6343 46.7249 50.7638 46.7249C51.6326 46.7249 52.4149 46.4695 53.2841 46.0439C53.3712 46.0439 53.4578 45.9586 53.5449 45.9586C53.7185 45.9586 53.8056 46.0439 53.8927 46.1287C53.9797 46.214 54.1534 46.4695 54.1534 46.4695C54.3271 46.7249 54.5012 47.0652 54.5012 47.3206C54.5012 47.7462 54.2405 48.1718 53.8931 48.3424C52.9373 48.8533 51.8077 49.1087 50.5911 49.1087C49.2008 49.1087 48.0707 48.768 47.2019 48.087C46.3331 47.3206 45.8116 46.2993 45.8116 45.0221V41.7018C45.8116 39.0626 47.5497 37.4451 50.5045 37.4451C53.3721 37.4451 55.0232 38.9777 55.0232 41.7018V43.7449C55.0232 44.0003 54.7624 44.2558 54.5017 44.2558H49.0271L49.0262 44.3411ZM48.9391 42.4681H52.2412V41.617C52.2412 40.5952 51.6331 39.9142 50.5901 39.9142C49.5472 39.9142 48.9391 40.5099 48.9391 41.617V42.4681ZM71.0992 44.3411L71.0121 45.1074C71.0121 46.1292 71.7072 46.7249 72.8368 46.7249C73.7056 46.7249 74.4879 46.4695 75.3571 46.0439C75.4442 46.0439 75.5308 45.9586 75.6179 45.9586C75.7915 45.9586 75.8786 46.0439 75.9657 46.1287C76.0527 46.214 76.2264 46.4695 76.2264 46.4695C76.4001 46.7249 76.5742 47.0652 76.5742 47.3206C76.5742 47.7462 76.3135 48.1718 75.9661 48.3424C75.0102 48.8533 73.8807 49.1087 72.6641 49.1087C71.2738 49.1087 70.1437 48.768 69.2749 48.087C68.4061 47.3206 67.8846 46.2993 67.8846 45.0221V41.7018C67.8846 39.0626 69.6227 37.4451 72.5774 37.4451C75.4451 37.4451 77.0962 38.9777 77.0962 41.7018V43.7449C77.0962 44.0003 76.8354 44.2558 76.5747 44.2558H71.1001V44.3411H71.0992ZM71.0121 42.4681H74.3142V41.617C74.3142 40.5952 73.7061 39.9142 72.6631 39.9142C71.6202 39.9142 71.0121 40.5099 71.0121 41.617V42.4681ZM19.9142 48.9381H21.1308C21.3915 48.9381 21.6523 48.6827 21.6523 48.4272V42.1274C21.6523 39.2327 20.0878 37.5299 17.4809 37.5299C16.6987 37.5299 15.8299 37.7001 15.3084 37.8706V34.7205C15.3084 34.0395 14.7003 33.4433 14.0047 33.4433H12.7881C12.5273 33.4433 12.2666 33.6987 12.2666 33.9542V48.4272C12.2666 48.6827 12.5273 48.9381 12.7881 48.9381H14.7869C15.0476 48.9381 15.3084 48.6827 15.3084 48.4272V40.4246C15.7428 40.2545 16.3513 40.1692 16.7857 40.1692C18.0894 40.1692 18.6105 40.7649 18.6105 42.2123V47.7462C18.6975 48.3424 19.219 48.9381 19.9142 48.9381ZM33.0363 41.7867V44.9368C33.0363 47.5761 31.2116 49.1936 28.1698 49.1936C25.2151 49.1936 23.3033 47.5761 23.3033 44.9368V41.7867C23.3033 39.1474 25.128 37.5299 28.1698 37.5299C31.2116 37.5299 33.0363 39.1479 33.0363 41.7867ZM29.995 41.7867C29.995 40.7649 29.3869 40.0839 28.2569 40.0839C27.1269 40.0839 26.5188 40.6796 26.5188 41.7867V44.9368C26.5188 45.9586 27.1269 46.5543 28.2569 46.5543C29.3869 46.5543 29.995 45.9586 29.995 44.9368V41.7867ZM10.616 40.3398C10.616 43.0643 8.53054 44.9373 5.74948 44.9373C5.05433 44.9373 4.44578 44.852 3.8377 44.5965V48.4277C3.8377 48.6831 3.57696 48.9386 3.31622 48.9386H1.31738C1.05664 48.9386 0.795898 48.6831 0.795898 48.4277V34.8911C0.795898 34.5504 1.05664 34.2954 1.31738 34.2101C2.62107 33.7845 3.92431 33.529 5.31461 33.529C8.44302 33.529 10.6155 35.402 10.6155 38.2967C10.616 38.2962 10.616 40.3398 10.616 40.3398ZM7.48758 38.1261C7.48758 36.764 6.53169 36.083 5.228 36.083C4.44578 36.083 3.9243 36.3385 3.9243 36.3385V41.9573C4.44578 42.2127 4.70652 42.298 5.31461 42.298C6.6183 42.298 7.57419 41.5317 7.57419 40.2549V38.1265H7.48758V38.1261ZM66.7541 40.3398C66.7541 43.0643 64.6687 44.9373 61.8876 44.9373C61.1925 44.9373 60.5839 44.852 59.9758 44.5965V48.4277C59.9758 48.6831 59.7151 48.9386 59.4544 48.9386H57.4555C57.1948 48.9386 56.934 48.6831 56.934 48.4277V34.8911C56.934 34.5504 57.1948 34.2954 57.4555 34.2101C58.7592 33.7845 60.0624 33.529 61.4527 33.529C64.5811 33.529 66.7537 35.402 66.7537 38.2967C66.7541 38.2962 66.7541 40.3398 66.7541 40.3398ZM63.6257 38.1261C63.6257 36.764 62.6698 36.083 61.3661 36.083C60.5839 36.083 60.0624 36.3385 60.0624 36.3385V41.9573C60.5839 42.2127 60.8447 42.298 61.4527 42.298C62.7564 42.298 63.7123 41.5317 63.7123 40.2549V38.1265H63.6257V38.1261Z" fill="white"/>
<path d="M39.1287 31.4163C47.7197 31.4163 54.6841 24.5934 54.6841 16.1769C54.6841 7.76041 47.7197 0.9375 39.1287 0.9375C30.5376 0.9375 23.5732 7.76041 23.5732 16.1769C23.5732 24.5934 30.5376 31.4163 39.1287 31.4163Z" fill="#5F259F"/>
<path d="M46.3845 12.1979C46.3845 11.6022 45.8631 11.0913 45.255 11.0913H43.1695L38.3901 5.72794C37.9557 5.21706 37.2605 5.04691 36.5654 5.21706L34.9143 5.72794C34.6536 5.81324 34.5665 6.15352 34.7407 6.32367L39.9545 11.1766H32.0457C31.785 11.1766 31.6113 11.3468 31.6113 11.6022V12.4534C31.6113 13.0491 32.1328 13.56 32.7409 13.56H33.9575V17.6466C33.9575 20.7114 35.6086 22.4995 38.3896 22.4995C39.2584 22.4995 39.9541 22.4142 40.8229 22.0739V24.7985C40.8229 25.5648 41.431 26.1606 42.2132 26.1606H43.4298C43.6905 26.1606 43.9513 25.9051 43.9513 25.6497V13.4751H45.9501C46.2109 13.4751 46.3845 13.305 46.3845 13.0495V12.1979ZM40.8229 19.5195C40.3014 19.775 39.6062 19.8603 39.0848 19.8603C37.6945 19.8603 36.9993 19.1792 36.9993 17.6466V13.56H40.8229V19.5195Z" fill="white"/>
</svg>